<?xml version="1.0" encoding="UTF-8" standalone="no"?>
<!DOCTYPE svg PUBLIC "-//W3C//DTD SVG 1.1//EN" "http://www.w3.org/Graphics/SVG/1.1/DTD/svg11.dtd">
<svg width="100%" height="100%" viewBox="0 0 138 33" version="1.1" xmlns="http://www.w3.org/2000/svg" xmlns:xlink="http://www.w3.org/1999/xlink" xml:space="preserve" xmlns:serif="http://www.serif.com/" style="fill-rule:evenodd;clip-rule:evenodd;stroke-linejoin:round;stroke-miterlimit:2;">
    <g transform="matrix(0.373523,0,0,0.373523,-190.656,-166.812)">
        <g transform="matrix(1,0,0,1,-27.9848,260.507)">
            <g transform="matrix(0.785875,0,0,0.785875,300.77,30.2609)">
                <circle cx="356.956" cy="252.843" r="54.565" style="fill:white;"/>
            </g>
            <g transform="matrix(1,0,0,1,170.093,-53.0555)">
                <path d="M400.38,247.086C403.896,245.965 407.638,245.36 411.521,245.36C431.754,245.36 448.181,261.787 448.181,282.02C448.181,302.253 431.754,318.68 411.521,318.68C391.288,318.68 374.861,302.253 374.861,282.02C374.861,269.491 381.159,258.422 390.761,251.808L390.758,282.283C390.756,293.887 400.175,303.31 411.779,303.312C423.36,303.314 432.768,293.933 432.808,282.359L432.814,265.887L416.353,282.02C418.298,282.11 421.244,282.2 423.189,282.289C423.188,288.585 418.076,293.695 411.781,293.693C405.51,293.692 400.415,288.62 400.377,282.359L400.377,282.285L400.38,247.086Z" style="fill:rgb(0,180,255);"/>
            </g>
        </g>
        <g transform="matrix(0.93673,0,0,0.93673,484.937,339.27)">
            <g transform="matrix(50,0,0,50,150.095,174.877)">
                <path d="M0.406,-0.075C0.405,-0.074 0.402,-0.069 0.396,-0.061C0.391,-0.052 0.385,-0.045 0.378,-0.039C0.356,-0.02 0.335,-0.006 0.315,0.001C0.294,0.008 0.271,0.012 0.243,0.012C0.164,0.012 0.111,-0.017 0.084,-0.073C0.069,-0.104 0.061,-0.151 0.061,-0.211L0.061,-0.532L0.204,-0.532L0.204,-0.211C0.204,-0.181 0.207,-0.158 0.214,-0.143C0.227,-0.116 0.252,-0.103 0.289,-0.103C0.337,-0.103 0.369,-0.122 0.387,-0.16C0.396,-0.181 0.4,-0.208 0.4,-0.243L0.4,-0.532L0.542,-0.532L0.542,-0L0.406,-0L0.406,-0.075Z" style="fill:white;fill-rule:nonzero;"/>
            </g>
            <g transform="matrix(50,0,0,50,180.637,174.877)">
                <path d="M0.315,-0.429C0.268,-0.429 0.236,-0.409 0.218,-0.369C0.209,-0.348 0.205,-0.321 0.205,-0.288L0.205,-0L0.066,-0L0.066,-0.531L0.2,-0.531L0.2,-0.454C0.218,-0.481 0.235,-0.501 0.251,-0.513C0.28,-0.534 0.316,-0.545 0.36,-0.545C0.415,-0.545 0.46,-0.531 0.495,-0.502C0.53,-0.473 0.547,-0.425 0.547,-0.358L0.547,-0L0.405,-0L0.405,-0.324C0.405,-0.352 0.401,-0.373 0.394,-0.388C0.38,-0.416 0.354,-0.429 0.315,-0.429Z" style="fill:white;fill-rule:nonzero;"/>
            </g>
            <g transform="matrix(50,0,0,50,211.179,174.877)">
                <path d="M0.314,-0.724L0.314,-0.611C0.307,-0.612 0.294,-0.613 0.275,-0.613C0.257,-0.614 0.244,-0.609 0.237,-0.601C0.23,-0.592 0.227,-0.583 0.227,-0.572L0.227,-0.527L0.318,-0.527L0.318,-0.429L0.227,-0.429L0.227,-0L0.088,-0L0.088,-0.429L0.01,-0.429L0.01,-0.527L0.086,-0.527L0.086,-0.562C0.086,-0.618 0.096,-0.658 0.115,-0.679C0.135,-0.711 0.184,-0.727 0.261,-0.727C0.27,-0.727 0.278,-0.727 0.285,-0.726C0.292,-0.726 0.302,-0.725 0.314,-0.724Z" style="fill:rgb(0,180,255);fill-rule:nonzero;"/>
            </g>
            <g transform="matrix(50,0,0,50,227.829,174.877)">
                <path d="M0.333,-0.404C0.277,-0.404 0.239,-0.386 0.22,-0.349C0.209,-0.329 0.204,-0.297 0.204,-0.254L0.204,-0L0.063,-0L0.063,-0.532L0.196,-0.532L0.196,-0.439C0.218,-0.475 0.236,-0.499 0.252,-0.512C0.278,-0.534 0.312,-0.545 0.354,-0.545L0.373,-0.544L0.373,-0.401C0.364,-0.402 0.356,-0.403 0.349,-0.403C0.342,-0.404 0.337,-0.404 0.333,-0.404Z" style="fill:rgb(0,180,255);fill-rule:nonzero;"/>
            </g>
            <g transform="matrix(50,0,0,50,247.287,174.877)">
                <path d="M0.085,-0.475C0.122,-0.521 0.185,-0.545 0.274,-0.545C0.333,-0.545 0.384,-0.533 0.43,-0.51C0.475,-0.487 0.498,-0.444 0.498,-0.379L0.498,-0.135C0.498,-0.118 0.498,-0.098 0.499,-0.074C0.5,-0.056 0.502,-0.043 0.507,-0.037C0.511,-0.03 0.518,-0.025 0.527,-0.021L0.527,-0L0.376,-0C0.372,-0.011 0.369,-0.021 0.367,-0.03C0.366,-0.04 0.364,-0.05 0.363,-0.063C0.344,-0.042 0.322,-0.024 0.297,-0.009C0.267,0.008 0.233,0.017 0.195,0.017C0.147,0.017 0.107,0.003 0.076,-0.025C0.045,-0.052 0.029,-0.091 0.029,-0.142C0.029,-0.207 0.054,-0.254 0.104,-0.284C0.132,-0.3 0.173,-0.311 0.227,-0.318L0.274,-0.324C0.3,-0.327 0.318,-0.331 0.329,-0.336C0.349,-0.344 0.359,-0.358 0.359,-0.375C0.359,-0.397 0.351,-0.412 0.336,-0.421C0.321,-0.429 0.299,-0.433 0.27,-0.433C0.237,-0.433 0.213,-0.425 0.2,-0.409C0.19,-0.397 0.183,-0.38 0.18,-0.36L0.046,-0.36C0.049,-0.406 0.062,-0.445 0.085,-0.475ZM0.188,-0.101C0.201,-0.09 0.217,-0.084 0.236,-0.084C0.266,-0.084 0.294,-0.093 0.319,-0.111C0.344,-0.128 0.357,-0.16 0.358,-0.207L0.358,-0.259C0.35,-0.253 0.341,-0.249 0.332,-0.245C0.323,-0.242 0.311,-0.239 0.295,-0.236L0.264,-0.23C0.234,-0.225 0.213,-0.218 0.201,-0.211C0.179,-0.198 0.168,-0.179 0.168,-0.152C0.168,-0.128 0.175,-0.111 0.188,-0.101Z" style="fill:rgb(0,180,255);fill-rule:nonzero;"/>
            </g>
            <g transform="matrix(50,0,0,50,275.095,174.877)">
                <path d="M0.406,-0.075C0.405,-0.074 0.402,-0.069 0.396,-0.061C0.391,-0.052 0.385,-0.045 0.378,-0.039C0.356,-0.02 0.335,-0.006 0.315,0.001C0.294,0.008 0.271,0.012 0.243,0.012C0.164,0.012 0.111,-0.017 0.084,-0.073C0.069,-0.104 0.061,-0.151 0.061,-0.211L0.061,-0.532L0.204,-0.532L0.204,-0.211C0.204,-0.181 0.207,-0.158 0.214,-0.143C0.227,-0.116 0.252,-0.103 0.289,-0.103C0.337,-0.103 0.369,-0.122 0.387,-0.16C0.396,-0.181 0.4,-0.208 0.4,-0.243L0.4,-0.532L0.542,-0.532L0.542,-0L0.406,-0L0.406,-0.075Z" style="fill:rgb(0,180,255);fill-rule:nonzero;"/>
            </g>
            <g transform="matrix(50,0,0,50,305.637,174.877)">
                <path d="M0.549,-0.719L0.549,-0L0.414,-0L0.414,-0.074C0.394,-0.042 0.372,-0.019 0.346,-0.005C0.321,0.009 0.289,0.017 0.251,0.017C0.189,0.017 0.137,-0.009 0.094,-0.059C0.052,-0.109 0.031,-0.174 0.031,-0.252C0.031,-0.343 0.052,-0.415 0.094,-0.467C0.135,-0.519 0.191,-0.545 0.261,-0.545C0.293,-0.545 0.322,-0.538 0.347,-0.524C0.372,-0.51 0.393,-0.49 0.408,-0.465L0.408,-0.719L0.549,-0.719ZM0.174,-0.263C0.174,-0.214 0.184,-0.174 0.204,-0.145C0.223,-0.115 0.252,-0.101 0.292,-0.101C0.331,-0.101 0.361,-0.115 0.381,-0.145C0.402,-0.174 0.412,-0.212 0.412,-0.258C0.412,-0.323 0.396,-0.37 0.363,-0.398C0.343,-0.415 0.319,-0.423 0.292,-0.423C0.252,-0.423 0.222,-0.408 0.203,-0.377C0.184,-0.346 0.174,-0.308 0.174,-0.263Z" style="fill:rgb(0,180,255);fill-rule:nonzero;"/>
            </g>
            <g transform="matrix(50,0,0,50,336.179,174.877)">
                <rect x="0.085" y="-0.106" width="0.102" height="0.106" style="fill:white;fill-rule:nonzero;"/>
            </g>
            <g transform="matrix(50,0,0,50,350.071,174.877)">
                <path d="M0.272,-0.057C0.33,-0.057 0.37,-0.079 0.392,-0.123C0.413,-0.167 0.424,-0.216 0.424,-0.27C0.424,-0.319 0.417,-0.359 0.401,-0.389C0.376,-0.437 0.333,-0.461 0.273,-0.461C0.219,-0.461 0.18,-0.441 0.156,-0.4C0.131,-0.359 0.119,-0.309 0.119,-0.251C0.119,-0.196 0.131,-0.149 0.156,-0.112C0.18,-0.075 0.219,-0.057 0.272,-0.057ZM0.275,-0.538C0.343,-0.538 0.4,-0.516 0.446,-0.471C0.493,-0.426 0.516,-0.36 0.516,-0.272C0.516,-0.188 0.496,-0.118 0.455,-0.063C0.414,-0.008 0.35,0.019 0.264,0.019C0.192,0.019 0.135,-0.005 0.092,-0.054C0.05,-0.103 0.029,-0.168 0.029,-0.25C0.029,-0.338 0.051,-0.408 0.096,-0.46C0.14,-0.512 0.2,-0.538 0.275,-0.538Z" style="fill:white;fill-rule:nonzero;"/>
            </g>
            <g transform="matrix(50,0,0,50,377.878,174.877)">
                <path d="M0.067,-0.523L0.15,-0.523L0.15,-0.433C0.157,-0.45 0.174,-0.472 0.201,-0.497C0.227,-0.522 0.258,-0.535 0.293,-0.535C0.295,-0.535 0.297,-0.535 0.301,-0.534C0.305,-0.534 0.312,-0.533 0.321,-0.532L0.321,-0.439C0.316,-0.44 0.311,-0.441 0.307,-0.441C0.302,-0.442 0.298,-0.442 0.292,-0.442C0.248,-0.442 0.214,-0.428 0.19,-0.399C0.167,-0.371 0.155,-0.338 0.155,-0.301L0.155,-0L0.067,-0L0.067,-0.523Z" style="fill:white;fill-rule:nonzero;"/>
            </g>
            <g transform="matrix(50,0,0,50,394.529,174.877)">
                <path d="M0.249,-0.532C0.29,-0.532 0.326,-0.522 0.356,-0.502C0.373,-0.491 0.39,-0.474 0.407,-0.452L0.407,-0.518L0.488,-0.518L0.488,-0.042C0.488,0.024 0.479,0.076 0.459,0.115C0.423,0.186 0.354,0.221 0.252,0.221C0.196,0.221 0.149,0.209 0.11,0.183C0.072,0.158 0.05,0.119 0.046,0.065L0.135,0.065C0.139,0.088 0.148,0.106 0.161,0.119C0.181,0.139 0.212,0.148 0.254,0.148C0.322,0.148 0.366,0.125 0.387,0.077C0.399,0.049 0.405,-0.001 0.404,-0.073C0.386,-0.046 0.365,-0.026 0.34,-0.013C0.316,-0 0.283,0.006 0.242,0.006C0.186,0.006 0.136,-0.014 0.094,-0.054C0.051,-0.094 0.03,-0.161 0.03,-0.253C0.03,-0.341 0.051,-0.409 0.094,-0.458C0.137,-0.508 0.188,-0.532 0.249,-0.532ZM0.407,-0.264C0.407,-0.328 0.394,-0.376 0.367,-0.408C0.34,-0.439 0.306,-0.455 0.265,-0.455C0.203,-0.455 0.161,-0.426 0.138,-0.368C0.126,-0.337 0.12,-0.296 0.12,-0.246C0.12,-0.187 0.132,-0.142 0.156,-0.112C0.18,-0.081 0.212,-0.065 0.252,-0.065C0.316,-0.065 0.36,-0.094 0.386,-0.151C0.4,-0.183 0.407,-0.221 0.407,-0.264Z" style="fill:white;fill-rule:nonzero;"/>
            </g>
        </g>
    </g>
</svg>
